<?xml version="1.0" standalone="no"?><!DOCTYPE svg PUBLIC "-//W3C//DTD SVG 1.1//EN" "http://www.w3.org/Graphics/SVG/1.1/DTD/svg11.dtd"><svg t="1668008890793" class="icon" viewBox="0 0 1083 1024" version="1.1" xmlns="http://www.w3.org/2000/svg" p-id="13844" xmlns:xlink="http://www.w3.org/1999/xlink" width="211.5234375" height="200"><path d="M27.255467 459.8016A27.2128 27.2128 0 0 0 0 487.005867v508.023466a27.2128 27.2128 0 0 0 27.255467 27.204267H276.138667a27.2128 27.2128 0 0 0 27.264-27.204267V486.997333a27.2128 27.2128 0 0 0-27.264-27.204266H27.255467z m221.627733 508.023467H54.2976V513.988267h194.5856v453.8368zM389.393067 27.195733C389.393067 12.168533 401.578667 0.2304 416.426667 0h249.105066a27.2128 27.2128 0 0 1 27.264 27.204267v967.825066a27.2128 27.2128 0 0 1-27.264 27.204267H416.648533a27.2128 27.2128 0 0 1-27.255466-27.204267V27.204267z m54.2976 27.2128v913.6384h194.5856V54.408533H443.690667z m611.012266 967.594667v0.2304H805.819733a27.2128 27.2128 0 0 1-27.264-27.204267V343.031467a27.2128 27.2128 0 0 1 27.264-27.204267h248.8832a27.2128 27.2128 0 0 1 27.255467 27.204267v651.776a27.2128 27.2128 0 0 1-27.255467 27.204266z m-221.627733-651.776v597.819733h194.5856V370.235733H833.0752z" fill="#20A0FF" p-id="13845"></path></svg>