<?xml version="1.0" standalone="no"?><!DOCTYPE svg PUBLIC "-//W3C//DTD SVG 1.1//EN" "http://www.w3.org/Graphics/SVG/1.1/DTD/svg11.dtd"><svg t="1668009011425" class="icon" viewBox="0 0 1024 1024" version="1.1" xmlns="http://www.w3.org/2000/svg" p-id="18868" xmlns:xlink="http://www.w3.org/1999/xlink" width="200" height="200"><path d="M512 563.2m-389.12 0a389.12 389.12 0 1 0 778.24 0 389.12 389.12 0 1 0-778.24 0Z" fill="#E9B710" p-id="18869"></path><path d="M512 563.2m-307.2 0a307.2 307.2 0 1 0 614.4 0 307.2 307.2 0 1 0-614.4 0Z" fill="#FFCC11" p-id="18870"></path><path d="M258.19136 196.44416A132.5056 132.5056 0 0 0 184.32 174.08c-73.5232 0-133.12 59.5968-133.12 133.12 0 40.87808 18.432 77.45536 47.43168 101.87776 26.7776-88.23808 84.04992-163.20512 159.55968-212.6336zM766.6688 195.87072A132.5056 132.5056 0 0 1 839.68 174.08c73.5232 0 133.12 59.5968 133.12 133.12a132.8128 132.8128 0 0 1-46.05952 100.7104c-27.0336-88.064-84.48-162.83648-160.07168-212.03968zM512 296.96a40.96 40.96 0 0 1 40.96 40.96v216.63744l100.9152 102.83008a40.96 40.96 0 1 1-58.4704 57.38496L471.04 588.032V337.92a40.96 40.96 0 0 1 40.96-40.96z" fill="#E9B710" p-id="18871"></path><path d="M517.12 568.32m-76.8 0a76.8 76.8 0 1 0 153.6 0 76.8 76.8 0 1 0-153.6 0Z" fill="#E9B710" p-id="18872"></path></svg>