<?xml version="1.0" standalone="no"?><!DOCTYPE svg PUBLIC "-//W3C//DTD SVG 1.1//EN" "http://www.w3.org/Graphics/SVG/1.1/DTD/svg11.dtd"><svg t="1667468376275" class="icon" viewBox="0 0 1024 1024" version="1.1" xmlns="http://www.w3.org/2000/svg" p-id="28339" xmlns:xlink="http://www.w3.org/1999/xlink" width="200" height="200"><path d="M430.08 525.653333m-273.066667 0a273.066667 273.066667 0 1 0 546.133334 0 273.066667 273.066667 0 1 0-546.133334 0Z" fill="#E9EAEB" p-id="28340"></path><path d="M662.07744 474.002773L815.458987 220.501333l23.360853 14.144854-153.381547 253.487786z" fill="#2A5082" p-id="28341"></path><path d="M509.09184 280.7808l21.981867-16.1792 153.791146 208.896-21.981866 16.192853z" fill="#2A5082" p-id="28342"></path><path d="M362.673493 629.746347l144.91648-362.605227 25.35424 10.130773-144.902826 362.605227z" fill="#2A5082" p-id="28343"></path><path d="M201.919147 480.515413l19.305813-19.305813 164.113067 164.113067-19.305814 19.319466z" fill="#2A5082" p-id="28344"></path><path d="M268.970667 469.674667c0 31.402667-24.576 55.978667-55.978667 55.978666S157.013333 499.712 157.013333 469.674667c0-31.402667 24.576-55.978667 55.978667-55.978667s55.978667 24.576 55.978667 55.978667z" fill="#A3D4FF" p-id="28345"></path><path d="M212.992 539.306667c-38.229333 0-69.632-31.402667-69.632-69.632s31.402667-69.632 69.632-69.632 69.632 31.402667 69.632 69.632-31.402667 69.632-69.632 69.632z m0-111.957334c-23.210667 0-42.325333 19.114667-42.325333 42.325334s19.114667 42.325333 42.325333 42.325333 42.325333-19.114667 42.325333-42.325333-19.114667-42.325333-42.325333-42.325334z" fill="#2A5082" p-id="28346"></path><path d="M576.170667 271.701333c0 31.402667-24.576 55.978667-55.978667 55.978667s-55.978667-24.576-55.978667-55.978667 24.576-55.978667 55.978667-55.978666 55.978667 25.941333 55.978667 55.978666z" fill="#A3D4FF" p-id="28347"></path><path d="M520.192 341.333333c-38.229333 0-69.632-31.402667-69.632-69.632s31.402667-69.632 69.632-69.632 69.632 31.402667 69.632 69.632-31.402667 69.632-69.632 69.632z m0-111.957333c-23.210667 0-42.325333 19.114667-42.325333 42.325333s19.114667 42.325333 42.325333 42.325334 42.325333-19.114667 42.325333-42.325334-19.114667-42.325333-42.325333-42.325333z" fill="#2A5082" p-id="28348"></path><path d="M430.08 634.88c0 31.402667-24.576 55.978667-55.978667 55.978667s-55.978667-24.576-55.978666-55.978667 24.576-55.978667 55.978666-55.978667 55.978667 25.941333 55.978667 55.978667z" fill="#A3D4FF" p-id="28349"></path><path d="M374.101333 704.512c-38.229333 0-69.632-31.402667-69.632-69.632s31.402667-69.632 69.632-69.632 69.632 31.402667 69.632 69.632-31.402667 69.632-69.632 69.632z m0-111.957333c-23.210667 0-42.325333 19.114667-42.325333 42.325333s19.114667 42.325333 42.325333 42.325333 42.325333-19.114667 42.325334-42.325333-19.114667-42.325333-42.325334-42.325333z" fill="#2A5082" p-id="28350"></path><path d="M730.453333 480.597333c0 31.402667-24.576 55.978667-55.978666 55.978667s-55.978667-24.576-55.978667-55.978667 24.576-55.978667 55.978667-55.978666c30.037333 0 55.978667 24.576 55.978666 55.978666z" fill="#A3D4FF" p-id="28351"></path><path d="M674.474667 550.229333c-38.229333 0-69.632-31.402667-69.632-69.632s31.402667-69.632 69.632-69.632 69.632 31.402667 69.632 69.632-31.402667 69.632-69.632 69.632z m0-111.957333c-23.210667 0-42.325333 19.114667-42.325334 42.325333s19.114667 42.325333 42.325334 42.325334 42.325333-19.114667 42.325333-42.325334-19.114667-42.325333-42.325333-42.325333z" fill="#2A5082" p-id="28352"></path><path d="M883.370667 226.645333c0 31.402667-24.576 55.978667-55.978667 55.978667S771.413333 258.048 771.413333 226.645333s24.576-55.978667 55.978667-55.978666 55.978667 24.576 55.978667 55.978666z" fill="#A3D4FF" p-id="28353"></path><path d="M827.392 296.277333c-38.229333 0-69.632-31.402667-69.632-69.632s31.402667-69.632 69.632-69.632 69.632 31.402667 69.632 69.632-31.402667 69.632-69.632 69.632z m0-111.957333c-23.210667 0-42.325333 19.114667-42.325333 42.325333s19.114667 42.325333 42.325333 42.325334 42.325333-19.114667 42.325333-42.325334-19.114667-42.325333-42.325333-42.325333zM839.68 839.68h27.306667v27.306667h-27.306667zM894.293333 839.68h27.306667v27.306667h-27.306667zM88.746667 839.68h54.613333v27.306667H88.746667zM170.666667 839.68h641.706666v27.306667H170.666667z" fill="#2A5082" p-id="28354"></path><path d="M880.64 662.186667h27.306667v81.92h-27.306667z" fill="#BCC0C4" p-id="28355"></path><path d="M853.333333 689.493333h81.92v27.306667h-81.92zM730.453333 703.146667h27.306667v81.92h-27.306667z" fill="#BCC0C4" p-id="28356"></path><path d="M703.146667 730.453333h81.92v27.306667h-81.92zM812.373333 525.653333h27.306667v81.92h-27.306667z" fill="#BCC0C4" p-id="28357"></path><path d="M785.066667 552.96h81.92v27.306667h-81.92z" fill="#BCC0C4" p-id="28358"></path></svg>